<?xml version="1.0" encoding="utf-8"?>
<!-- Generator: Adobe Illustrator 15.1.0, SVG Export Plug-In . SVG Version: 6.00 Build 0)  -->
<!DOCTYPE svg PUBLIC "-//W3C//DTD SVG 1.1//EN" "http://www.w3.org/Graphics/SVG/1.1/DTD/svg11.dtd">
<svg version="1.1" xmlns="http://www.w3.org/2000/svg" xmlns:xlink="http://www.w3.org/1999/xlink" x="0px" y="0px" width="1000px"
	 height="1000px" viewBox="0 0 1000 1000" enable-background="new 0 0 1000 1000" xml:space="preserve">
<g id="Layer_3">
	<rect y="4" width="1000" height="1000"/>
</g>
<g id="Layer_2">
	<g>
		<path fill="#FFFFFF" d="M500,180c43.213,0,85.117,8.457,124.549,25.135c38.103,16.116,72.327,39.193,101.726,68.591
			c29.397,29.398,52.476,63.624,68.591,101.726C811.543,414.883,820,456.788,820,500.001s-8.457,85.117-25.135,124.549
			c-16.115,38.102-39.193,72.327-68.591,101.725c-29.398,29.397-63.623,52.476-101.726,68.591C585.117,811.544,543.213,820,500,820
			s-85.117-8.456-124.549-25.135c-38.103-16.115-72.327-39.193-101.726-68.591c-29.397-29.397-52.476-63.623-68.591-101.725
			C188.457,585.118,180,543.214,180,500.001s8.457-85.118,25.135-124.55c16.115-38.102,39.193-72.327,68.591-101.726
			c29.398-29.398,63.623-52.475,101.726-68.591C414.883,188.457,456.787,180,500,180L500,180z M500,150
			c-193.3,0-350,156.7-350,350.001C150,693.3,306.7,850,500,850s350-156.7,350-349.999C850,306.7,693.3,150,500,150L500,150z"/>
		<path fill="#FFFFFF" d="M250.505,494.678c0,53.459,41.127,97.486,93.402,102.121v-42.416
			c-21.876-3.33-39.925-18.443-47.467-38.637h47.467v-42.137H296.44c7.542-20.193,25.592-35.307,47.467-38.639v-42.414
			C291.632,397.191,250.505,441.219,250.505,494.678z"/>
		<g>
			<g>
				<path fill="#FFFFFF" d="M388.354,527.746h-26.188v14.459C372.326,540.26,381.455,535.119,388.354,527.746z"/>
				<path fill="#FFFFFF" d="M362.166,447.149v14.46h26.188C381.454,454.235,372.326,449.095,362.166,447.149z"/>
				<path fill="#FFFFFF" d="M717.495,590.678v-192c0-22-18-40-40-40H402.166c-15.64,0-29.25,9.102-35.817,22.265
					c23.479,2.721,45.19,12.476,62.956,28.362c15.929,14.243,27.351,32.178,33.398,52.305h198.672v100.547h-66.137v-34.41h-3.389
					v34.41h-66.137v-34.41h-63.01c-6.048,20.126-17.47,38.062-33.398,52.304c-17.766,15.886-39.477,25.641-62.956,28.362
					c6.567,13.164,20.178,22.266,35.817,22.266h206.048l109.281,60.886l-40.152-60.886h0.152
					C699.495,630.678,717.495,612.678,717.495,590.678z"/>
			</g>
			<path fill="#FFFFFF" d="M453.386,473.609c-9.136-43.563-46.004-77.045-91.22-81.053v42.414
				c21.876,3.332,39.926,18.445,47.468,38.639h-47.468v42.137h47.468c-7.542,20.193-25.592,35.307-47.468,38.637v42.416
				c45.216-4.01,82.084-37.49,91.22-81.053h84.327v34.41h42.137v-34.41h27.389v34.41h42.137v-34.41v-21.068v-21.068H453.386z"/>
		</g>
	</g>
</g>
</svg>
