<?xml version="1.0" encoding="utf-8"?>
<!-- Generator: Adobe Illustrator 15.1.0, SVG Export Plug-In . SVG Version: 6.00 Build 0)  -->
<!DOCTYPE svg PUBLIC "-//W3C//DTD SVG 1.1//EN" "http://www.w3.org/Graphics/SVG/1.1/DTD/svg11.dtd">
<svg version="1.1" xmlns="http://www.w3.org/2000/svg" xmlns:xlink="http://www.w3.org/1999/xlink" x="0px" y="0px" width="1000px"
	 height="1000px" viewBox="0 0 1000 1000" enable-background="new 0 0 1000 1000" xml:space="preserve">
<g id="Layer_3">
</g>
<g id="Layer_2">
	<circle fill="#FF0000" cx="500" cy="500.001" r="350"/>
	<path fill="#455A64" d="M677.5,630.68h-0.16l40.16,60.88l-109.29-60.88H402.17c-19.939,0-36.59-14.779-39.54-33.93
		c-0.3-1.98-0.46-4.01-0.46-6.07v-192c0-2.06,0.16-4.09,0.46-6.07c2.95-19.15,19.601-33.93,39.54-33.93H677.5c22,0,40,18,40,40v192
		C717.5,612.68,699.5,630.68,677.5,630.68z"/>
	<g>
		<path fill="#FFFFFF" d="M250.505,494.678c0,53.459,41.127,97.486,93.402,102.121v-42.416
			c-21.876-3.33-39.925-18.443-47.467-38.637h47.467v-42.137H296.44c7.542-20.193,25.592-35.307,47.467-38.639v-42.414
			C291.632,397.191,250.505,441.219,250.505,494.678z"/>
		<path fill="#FFFFFF" d="M649.38,473.61v76.55h-42.14v-34.41H579.85v34.41h-42.14v-34.41h-84.32c-9.109,43.41-45.76,76.81-90.76,81
			c-0.3-1.98-0.46-4.01-0.46-6.07v-36.3c21.87-3.33,39.92-18.439,47.46-38.63h-47.46v-42.14h47.46
			c-7.54-20.19-25.59-35.31-47.46-38.64v-36.29c0-2.06,0.16-4.09,0.46-6.07c45,4.18,81.65,37.59,90.76,81H649.38z"/>
	</g>
</g>
</svg>
