<?xml version="1.0" encoding="utf-8"?>
<!-- Generator: Adobe Illustrator 15.1.0, SVG Export Plug-In . SVG Version: 6.00 Build 0)  -->
<!DOCTYPE svg PUBLIC "-//W3C//DTD SVG 1.1//EN" "http://www.w3.org/Graphics/SVG/1.1/DTD/svg11.dtd">
<svg version="1.1" id="Layer_2" xmlns="http://www.w3.org/2000/svg" xmlns:xlink="http://www.w3.org/1999/xlink" x="0px" y="0px"
	 width="1000px" height="334.099px" viewBox="0 0 1000 334.099" enable-background="new 0 0 1000 334.099" xml:space="preserve">
<g>
	<path d="M164.678,99.632c9.104,0,17.933,1.781,26.24,5.295c8.027,3.395,15.238,8.258,21.432,14.451s11.055,13.404,14.45,21.432
		c3.514,8.307,5.296,17.135,5.296,26.24c0,9.104-1.782,17.932-5.296,26.24c-3.396,8.027-8.257,15.238-14.45,21.432
		s-13.404,11.055-21.432,14.449c-8.308,3.516-17.136,5.297-26.24,5.297c-9.104,0-17.933-1.781-26.24-5.297
		c-8.027-3.395-15.238-8.256-21.432-14.449s-11.056-13.404-14.451-21.432c-3.513-8.309-5.295-17.137-5.295-26.24
		c0-9.105,1.782-17.934,5.295-26.24c3.396-8.027,8.258-15.238,14.451-21.432s13.404-11.057,21.432-14.451
		C146.745,101.413,155.574,99.632,164.678,99.632L164.678,99.632z M164.678,93.312c-40.725,0-73.738,33.014-73.738,73.738
		s33.014,73.738,73.738,73.738s73.738-33.014,73.738-73.738S205.402,93.312,164.678,93.312L164.678,93.312z"/>
	<path d="M112.114,165.929c0,11.262,8.664,20.537,19.678,21.514v-8.936c-4.608-0.701-8.411-3.885-10.001-8.141h10.001v-8.877
		h-10.001c1.59-4.254,5.393-7.438,10.001-8.141v-8.936C120.778,145.39,112.114,154.665,112.114,165.929z"/>
	<g>
		<g>
			<path d="M141.156,172.896h-5.518v3.045C137.779,175.53,139.702,174.448,141.156,172.896z"/>
			<path d="M135.639,155.915v3.045h5.518C139.702,157.407,137.779,156.325,135.639,155.915z"/>
			<path d="M210.5,186.153v-40.451c0-4.635-3.792-8.426-8.428-8.426h-58.006c-3.295,0-6.163,1.916-7.547,4.689
				c4.947,0.574,9.521,2.629,13.264,5.975c3.356,3.002,5.763,6.781,7.037,11.02h41.855v21.184h-13.934v-7.248h-0.714v7.248h-13.933
				v-7.248H156.82c-1.274,4.24-3.681,8.018-7.037,11.02c-3.742,3.346-8.316,5.402-13.264,5.975c1.384,2.773,4.252,4.691,7.547,4.691
				h43.41l23.023,12.828l-8.46-12.828h0.032C206.708,194.581,210.5,190.788,210.5,186.153z"/>
		</g>
		<path d="M154.856,161.489c-1.925-9.178-9.692-16.232-19.218-17.076v8.936c4.609,0.703,8.411,3.887,10,8.141h-10v8.877h10
			c-1.589,4.256-5.391,7.439-10,8.141v8.936c9.525-0.844,17.293-7.898,19.218-17.076h17.767v7.25h8.877v-7.25h5.771v7.25h8.878
			v-7.25v-4.438v-4.439H154.856z"/>
	</g>
</g>
<g>
	<g>
		<g>
			<path d="M328.826,175.452h-38.484c2.352,4.043,6.506,6.064,12.461,6.064c2.277,0,4.061,0.68,5.348,2.039
				c1.285,1.361,1.93,2.961,1.93,4.797c0,1.764-0.627,3.273-1.875,4.521c-1.25,1.248-3.051,1.873-5.402,1.873
				c-8.309,0-14.998-2.553-20.07-7.662s-7.609-11.854-7.609-20.234c0-8.822,2.463-15.859,7.389-21.117
				c4.924-5.254,11.799-7.885,20.621-7.885c8.453,0,14.996,3.162,19.629,9.482c4.041,5.662,6.064,12.756,6.064,21.283V175.452z
				 M314.822,162.22c-1.473-7.426-5.369-11.139-11.689-11.139c-8.309,0-13.123,3.713-14.445,11.139H314.822z"/>
			<path d="M388.701,193.978h-29.662c-6.176,0-11.102-1.711-14.777-5.127c-3.676-3.42-5.514-8.252-5.514-14.502
				c0-6.838,2.381-12.057,7.146-15.658c4.176-3.234,9.602-4.852,16.27-4.852c2.053,0,4.287,0.479,6.707,1.434
				c2.785,1.102,4.947,2.5,6.486,4.189c0-6.027-3.656-9.043-10.965-9.043c-2.484,0-4.494-0.732-6.029-2.203
				s-2.303-3.125-2.303-4.965c0-4.041,2.793-6.064,8.381-6.064c6.836,0,12.461,1.654,16.871,4.963
				c4.924,3.676,7.389,8.785,7.389,15.328V193.978z M375.357,180.745v-5.184c0-2.793-1.566-4.963-4.695-6.506
				c-2.551-1.324-5.354-1.984-8.412-1.984c-6.773,0-10.158,2.426-10.158,7.277c0,4.338,2.91,6.469,8.738,6.396H375.357z"/>
			<path d="M447.916,175.671c0,6.766-2.756,11.764-8.27,14.998c-4.412,2.572-10.219,3.859-17.424,3.859
				c-4.264,0-9.373-1.104-15.326-3.309c-2.941-1.027-4.412-3.014-4.412-5.953c0-1.766,0.609-3.363,1.824-4.797
				c1.217-1.434,2.75-2.15,4.594-2.15c0.811,0,1.621,0.184,2.436,0.551c4.572,1.617,8.225,2.426,10.955,2.426
				c2.729,0,5.199-0.33,7.412-0.994c3.246-0.953,4.869-2.424,4.869-4.41c0-1.395-2.951-2.609-8.852-3.639
				c-7.818-1.322-13.02-2.572-15.6-3.748c-5.826-2.646-8.74-6.838-8.74-12.572c0-6.174,2.756-10.953,8.27-14.334
				c4.631-2.867,10.217-4.301,16.762-4.301c5.514,0,10.402,0.955,14.666,2.867c2.646,1.176,3.969,3.125,3.969,5.844
				c0,1.764-0.625,3.363-1.873,4.797c-1.252,1.434-2.758,2.15-4.521,2.15c-1.031,0-2.023-0.221-2.979-0.662
				c-2.574-1.174-5.662-1.764-9.262-1.764c-3.457,0-5.699,0.074-6.727,0.221c-3.162,0.59-4.742,1.984-4.742,4.189
				c0,1.25,3.123,2.537,9.373,3.859c8.16,1.691,13.27,2.977,15.328,3.859C445.16,165.013,447.916,169.351,447.916,175.671z"/>
			<path d="M513.195,148.216l-24.148,61.42c-1.104,2.791-3.088,4.189-5.955,4.189c-1.838,0-3.457-0.605-4.852-1.818
				c-1.398-1.215-2.096-2.703-2.096-4.467c0-0.881,0.221-1.803,0.662-2.758l2.426-5.291c0.072-0.076-6.801-17.164-20.621-51.275
				c-0.367-0.885-0.551-1.766-0.551-2.648c0-1.836,0.701-3.381,2.1-4.631s2.982-1.875,4.75-1.875c2.869,0,4.857,1.395,5.965,4.182
				l15.314,37.498l14.691-37.365c1.17-2.875,3.15-4.314,5.938-4.314c1.832,0,3.445,0.625,4.838,1.875s2.092,2.795,2.092,4.631
				C513.748,146.378,513.563,147.259,513.195,148.216z"/>
		</g>
	</g>
	<g>
		<path d="M577.924,175.452h-38.484c2.352,4.043,6.506,6.064,12.461,6.064c2.275,0,4.061,0.68,5.348,2.039
			c1.285,1.361,1.93,2.961,1.93,4.797c0,1.764-0.625,3.273-1.875,4.521s-3.051,1.873-5.402,1.873c-8.309,0-14.998-2.553-20.07-7.662
			s-7.609-11.854-7.609-20.234c0-8.822,2.463-15.859,7.389-21.117c4.924-5.254,11.799-7.885,20.621-7.885
			c8.453,0,14.996,3.162,19.629,9.482c4.041,5.662,6.064,12.756,6.064,21.283V175.452z M563.918,162.22
			c-1.471-7.426-5.365-11.139-11.688-11.139c-8.309,0-13.121,3.713-14.445,11.139H563.918z"/>
		<path d="M640.336,187.335c0,2.141-0.67,3.781-2.004,4.926c-1.332,1.145-2.891,1.717-4.668,1.717c-1.854,0-3.43-0.572-4.727-1.713
			c-1.297-1.143-1.943-2.783-1.943-4.92v-28.303c0-3.172-1.531-5.381-4.59-6.633c-2.258-0.885-5.537-1.254-9.834-1.107
			c-10.453,0.111-13.586,0.186-9.396,0.221v35.787c0,2.146-0.65,3.797-1.945,4.945c-1.299,1.148-2.873,1.723-4.725,1.723
			c-1.781,0-3.34-0.572-4.672-1.717c-1.334-1.145-2-2.785-2-4.926v-48.934l29.773-0.111c6.027,0,10.988,1.9,14.885,5.701
			s5.846,8.803,5.846,15.002V187.335z"/>
		<path d="M694.809,190.007c-4.561,3.162-9.998,4.74-16.32,4.74c-8.381,0-15.09-2.57-20.125-7.717
			c-5.037-5.146-7.553-11.982-7.553-20.512c0-7.939,2.607-14.629,7.828-20.068c5.219-5.439,11.836-8.16,19.85-8.16
			c5.219,0,9.996,1.287,14.336,3.859c2.277,1.25,3.418,3.051,3.418,5.402c0,1.84-0.641,3.457-1.922,4.854
			c-1.283,1.396-2.84,2.094-4.672,2.094c-1.172,0-2.307-0.33-3.406-0.992c-2.271-1.322-4.836-1.984-7.693-1.984
			c-4.248,0-7.711,1.398-10.385,4.189c-2.674,2.795-4.012,6.396-4.012,10.807c0,10,4.799,14.998,14.398,14.998
			c3.518,0,6.449-0.809,8.793-2.428c1.244-0.807,2.527-1.211,3.848-1.211c1.83,0,3.389,0.699,4.67,2.094
			c1.281,1.398,1.924,2.979,1.924,4.742C697.785,186.919,696.793,188.683,694.809,190.007z"/>
		<path d="M738.033,138.29c3.676,0.957,5.514,3.271,5.514,6.947c0,1.764-0.514,3.252-1.537,4.465s-2.451,1.82-4.279,1.82
			c-0.367,0-0.881-0.072-1.539-0.221c-0.656-0.146-1.17-0.221-1.533-0.221c-3.074,0-6.332,1.387-9.771,4.158
			c-3.438,2.77-5.158,5.598-5.158,8.479v23.607c0,2.145-0.668,3.789-2.002,4.934c-1.334,1.146-2.891,1.719-4.668,1.719
			c-1.781,0-3.34-0.572-4.672-1.713c-1.334-1.141-2-2.781-2-4.918v-41.545c0-2.063,0.66-3.684,1.984-4.861
			c1.322-1.178,2.867-1.77,4.631-1.77c3.676,0,5.844,1.766,6.506,5.295c1.396-1.912,3.438-3.49,6.121-4.742
			c2.682-1.25,5.457-1.875,8.324-1.875C735.35,137.849,736.711,137.997,738.033,138.29z"/>
		<path d="M806.289,148.216l-24.148,61.42c-1.104,2.791-3.088,4.189-5.955,4.189c-1.838,0-3.455-0.605-4.852-1.818
			c-1.398-1.215-2.096-2.703-2.096-4.467c0-0.881,0.221-1.803,0.662-2.758l2.426-5.291c0.072-0.076-6.801-17.164-20.619-51.275
			c-0.369-0.885-0.553-1.766-0.553-2.648c0-1.836,0.699-3.381,2.1-4.631c1.398-1.25,2.982-1.875,4.75-1.875
			c2.869,0,4.859,1.395,5.965,4.182l15.314,37.498l14.691-37.365c1.17-2.875,3.15-4.314,5.939-4.314c1.83,0,3.443,0.625,4.838,1.875
			c1.393,1.25,2.09,2.795,2.09,4.631C806.842,146.378,806.656,147.259,806.289,148.216z"/>
		<path d="M863.408,164.97c0,7.898-2.051,14.578-6.152,20.039c-4.545,5.979-10.59,8.969-18.137,8.969
			c-3.592,0-6.707-0.441-9.342-1.324v12.682c0,2.057-0.668,3.676-2.002,4.852s-2.893,1.764-4.67,1.764
			c-1.779,0-3.338-0.588-4.67-1.764c-1.334-1.176-2.002-2.795-2.002-4.852v-60.43c0-2.057,0.662-3.674,1.986-4.852
			c1.322-1.176,2.867-1.764,4.631-1.764c2.131,0,3.822,0.736,5.072,2.205c2.719-1.469,5.918-2.205,9.594-2.205
			c7.645,0,13.895,2.621,18.746,7.859C861.094,151.169,863.408,157.442,863.408,164.97z M850.066,164.968
			c0-4.074-1.129-7.334-3.383-9.779c-2.252-2.443-5.234-3.666-8.943-3.666c-5.309,0-7.963,2.631-7.963,7.891v18.998
			c2.545,1.555,5.637,2.334,9.273,2.334c3.779,0,6.652-1.74,8.615-5.225C849.266,172.634,850.066,169.116,850.066,164.968z"/>
		<path d="M902.488,139.171c2.043,0,3.652,0.645,4.82,1.93c1.168,1.289,1.752,2.852,1.752,4.688c0,1.764-0.584,3.309-1.752,4.631
			c-1.168,1.324-2.777,1.986-4.82,1.986h-9.418v23.816c0,2.281,0.109,3.678,0.326,4.191c0.434,0.736,1.561,1.104,3.373,1.104
			c1.305,0,2.865-0.184,4.678-0.551c1.957-0.295,3.713,0.258,5.273,1.652c1.559,1.396,2.34,3.053,2.34,4.963
			c0,4.779-4.139,7.166-12.414,7.166c-11.279,0-16.918-6.174-16.918-18.525v-23.928c-1.838-0.146-3.271-0.844-4.301-2.096
			c-1.031-1.248-1.543-2.719-1.543-4.41c0-2.057,1.945-4.262,5.844-6.617v-5.291c0-2.059,0.666-3.676,2-4.854
			c1.334-1.174,2.891-1.764,4.672-1.764c1.852,0,3.426,0.59,4.725,1.764c1.297,1.178,1.945,2.795,1.945,4.854v5.291H902.488z"/>
	</g>
</g>
</svg>
