<?xml version="1.0" encoding="utf-8"?>
<!-- Generator: Adobe Illustrator 15.1.0, SVG Export Plug-In . SVG Version: 6.00 Build 0)  -->
<!DOCTYPE svg PUBLIC "-//W3C//DTD SVG 1.1//EN" "http://www.w3.org/Graphics/SVG/1.1/DTD/svg11.dtd">
<svg version="1.1" id="Layer_2" xmlns="http://www.w3.org/2000/svg" xmlns:xlink="http://www.w3.org/1999/xlink" x="0px" y="0px"
	 width="1000px" height="334.099px" viewBox="0 0 1000 334.099" enable-background="new 0 0 1000 334.099" xml:space="preserve">
<path fill="#FFA000" d="M210.777,186.358v-40.885c0-4.688-3.832-8.52-8.52-8.52h-58.631c-4.686,0-8.518,3.832-8.518,8.52v40.885
	c0,4.686,3.832,8.52,8.518,8.52h43.879l23.271,12.963l-8.551-12.963h0.031C206.945,194.878,210.777,191.044,210.777,186.358z"/>
<g>
	<path fill="#FFFFFF" d="M111.33,165.919c0,11.383,8.758,20.758,19.891,21.744v-9.033c-4.66-0.709-8.502-3.928-10.109-8.229h10.109
		v-8.973h-10.109c1.607-4.299,5.449-7.516,10.109-8.227v-9.033C120.088,145.155,111.33,154.53,111.33,165.919z"/>
	<path fill="#FFFFFF" d="M154.533,161.429c-1.945-9.275-9.795-16.406-19.424-17.26v9.033c4.658,0.711,8.502,3.928,10.107,8.227
		h-10.107v8.973h10.107c-1.605,4.301-5.449,7.52-10.107,8.229v9.033c9.629-0.854,17.479-7.982,19.424-17.262h17.959v7.328h8.973
		v-7.328h5.832v7.328h8.973v-7.328v-4.482v-4.49H154.533z"/>
</g>
<g>
	<path fill="#455A64" d="M329.838,175.452h-38.484c2.352,4.043,6.506,6.064,12.461,6.064c2.277,0,4.061,0.68,5.348,2.039
		c1.285,1.361,1.93,2.961,1.93,4.797c0,1.764-0.627,3.273-1.875,4.521c-1.25,1.248-3.051,1.873-5.402,1.873
		c-8.309,0-14.998-2.553-20.07-7.662s-7.609-11.854-7.609-20.234c0-8.822,2.463-15.859,7.389-21.117
		c4.924-5.254,11.799-7.885,20.621-7.885c8.453,0,14.996,3.162,19.629,9.482c4.041,5.662,6.064,12.756,6.064,21.283V175.452z
		 M315.834,162.22c-1.473-7.426-5.369-11.139-11.689-11.139c-8.309,0-13.123,3.713-14.445,11.139H315.834z"/>
	<path fill="#455A64" d="M389.713,193.978h-29.662c-6.176,0-11.102-1.711-14.777-5.127c-3.676-3.42-5.514-8.252-5.514-14.502
		c0-6.838,2.381-12.057,7.146-15.658c4.176-3.234,9.602-4.852,16.27-4.852c2.053,0,4.287,0.479,6.707,1.434
		c2.785,1.102,4.947,2.5,6.486,4.189c0-6.027-3.656-9.043-10.965-9.043c-2.484,0-4.494-0.732-6.029-2.203s-2.303-3.125-2.303-4.965
		c0-4.041,2.793-6.064,8.381-6.064c6.836,0,12.461,1.654,16.871,4.963c4.924,3.676,7.389,8.785,7.389,15.328V193.978z
		 M376.369,180.745v-5.184c0-2.793-1.566-4.963-4.695-6.506c-2.551-1.324-5.354-1.984-8.412-1.984
		c-6.773,0-10.158,2.426-10.158,7.277c0,4.338,2.91,6.469,8.738,6.396H376.369z"/>
	<path fill="#455A64" d="M448.928,175.671c0,6.766-2.756,11.764-8.27,14.998c-4.412,2.572-10.219,3.859-17.424,3.859
		c-4.264,0-9.373-1.104-15.326-3.309c-2.941-1.027-4.412-3.014-4.412-5.953c0-1.766,0.609-3.363,1.824-4.797
		c1.217-1.434,2.75-2.15,4.594-2.15c0.811,0,1.621,0.184,2.436,0.551c4.572,1.617,8.225,2.426,10.955,2.426
		c2.729,0,5.199-0.33,7.412-0.994c3.246-0.953,4.869-2.424,4.869-4.41c0-1.395-2.951-2.609-8.852-3.639
		c-7.818-1.322-13.02-2.572-15.6-3.748c-5.826-2.646-8.74-6.838-8.74-12.572c0-6.174,2.756-10.953,8.27-14.334
		c4.631-2.867,10.217-4.301,16.762-4.301c5.514,0,10.402,0.955,14.666,2.867c2.646,1.176,3.969,3.125,3.969,5.844
		c0,1.764-0.625,3.363-1.873,4.797c-1.252,1.434-2.758,2.15-4.521,2.15c-1.031,0-2.023-0.221-2.979-0.662
		c-2.574-1.174-5.662-1.764-9.262-1.764c-3.457,0-5.699,0.074-6.727,0.221c-3.162,0.59-4.742,1.984-4.742,4.189
		c0,1.25,3.123,2.537,9.373,3.859c8.16,1.691,13.27,2.977,15.328,3.859C446.172,165.013,448.928,169.351,448.928,175.671z"/>
	<path fill="#455A64" d="M514.207,148.216l-24.148,61.42c-1.104,2.791-3.088,4.189-5.955,4.189c-1.838,0-3.457-0.605-4.852-1.818
		c-1.398-1.215-2.096-2.703-2.096-4.467c0-0.881,0.221-1.803,0.662-2.758l2.426-5.291c0.072-0.076-6.801-17.164-20.621-51.275
		c-0.367-0.885-0.551-1.766-0.551-2.648c0-1.836,0.701-3.381,2.1-4.631s2.982-1.875,4.75-1.875c2.869,0,4.857,1.395,5.965,4.182
		l15.314,37.498l14.691-37.365c1.17-2.875,3.15-4.314,5.938-4.314c1.832,0,3.445,0.625,4.838,1.875s2.092,2.795,2.092,4.631
		C514.76,146.378,514.574,147.259,514.207,148.216z"/>
</g>
<g>
	<path fill="#FFA000" d="M578.936,175.452h-38.484c2.352,4.043,6.506,6.064,12.461,6.064c2.275,0,4.061,0.68,5.348,2.039
		c1.285,1.361,1.93,2.961,1.93,4.797c0,1.764-0.625,3.273-1.875,4.521s-3.051,1.873-5.402,1.873c-8.309,0-14.998-2.553-20.07-7.662
		s-7.609-11.854-7.609-20.234c0-8.822,2.463-15.859,7.389-21.117c4.924-5.254,11.799-7.885,20.621-7.885
		c8.453,0,14.996,3.162,19.629,9.482c4.041,5.662,6.064,12.756,6.064,21.283V175.452z M564.93,162.22
		c-1.471-7.426-5.365-11.139-11.688-11.139c-8.309,0-13.121,3.713-14.445,11.139H564.93z"/>
	<path fill="#FFA000" d="M641.348,187.335c0,2.141-0.67,3.781-2.004,4.926c-1.332,1.145-2.891,1.717-4.668,1.717
		c-1.854,0-3.43-0.572-4.727-1.713c-1.297-1.143-1.943-2.783-1.943-4.92v-28.303c0-3.172-1.531-5.381-4.59-6.633
		c-2.258-0.885-5.537-1.254-9.834-1.107c-10.453,0.111-13.586,0.186-9.396,0.221v35.787c0,2.146-0.65,3.797-1.945,4.945
		c-1.299,1.148-2.873,1.723-4.725,1.723c-1.781,0-3.34-0.572-4.672-1.717c-1.334-1.145-2-2.785-2-4.926v-48.934l29.773-0.111
		c6.027,0,10.988,1.9,14.885,5.701s5.846,8.803,5.846,15.002V187.335z"/>
	<path fill="#FFA000" d="M695.82,190.007c-4.561,3.162-9.998,4.74-16.32,4.74c-8.381,0-15.09-2.57-20.125-7.717
		c-5.037-5.146-7.553-11.982-7.553-20.512c0-7.939,2.607-14.629,7.828-20.068c5.219-5.439,11.836-8.16,19.85-8.16
		c5.219,0,9.996,1.287,14.336,3.859c2.277,1.25,3.418,3.051,3.418,5.402c0,1.84-0.641,3.457-1.922,4.854
		c-1.283,1.396-2.84,2.094-4.672,2.094c-1.172,0-2.307-0.33-3.406-0.992c-2.271-1.322-4.836-1.984-7.693-1.984
		c-4.248,0-7.711,1.398-10.385,4.189c-2.674,2.795-4.012,6.396-4.012,10.807c0,10,4.799,14.998,14.398,14.998
		c3.518,0,6.449-0.809,8.793-2.428c1.244-0.807,2.527-1.211,3.848-1.211c1.83,0,3.389,0.699,4.67,2.094
		c1.281,1.398,1.924,2.979,1.924,4.742C698.797,186.919,697.805,188.683,695.82,190.007z"/>
	<path fill="#FFA000" d="M739.045,138.29c3.676,0.957,5.514,3.271,5.514,6.947c0,1.764-0.514,3.252-1.537,4.465
		s-2.451,1.82-4.279,1.82c-0.367,0-0.881-0.072-1.539-0.221c-0.656-0.146-1.17-0.221-1.533-0.221c-3.074,0-6.332,1.387-9.771,4.158
		c-3.438,2.77-5.158,5.598-5.158,8.479v23.607c0,2.145-0.668,3.789-2.002,4.934c-1.334,1.146-2.891,1.719-4.668,1.719
		c-1.781,0-3.34-0.572-4.672-1.713c-1.334-1.141-2-2.781-2-4.918v-41.545c0-2.063,0.66-3.684,1.984-4.861
		c1.322-1.178,2.867-1.77,4.631-1.77c3.676,0,5.844,1.766,6.506,5.295c1.396-1.912,3.438-3.49,6.121-4.742
		c2.682-1.25,5.457-1.875,8.324-1.875C736.361,137.849,737.723,137.997,739.045,138.29z"/>
	<path fill="#FFA000" d="M807.301,148.216l-24.148,61.42c-1.104,2.791-3.088,4.189-5.955,4.189c-1.838,0-3.455-0.605-4.852-1.818
		c-1.398-1.215-2.096-2.703-2.096-4.467c0-0.881,0.221-1.803,0.662-2.758l2.426-5.291c0.072-0.076-6.801-17.164-20.619-51.275
		c-0.369-0.885-0.553-1.766-0.553-2.648c0-1.836,0.699-3.381,2.1-4.631c1.398-1.25,2.982-1.875,4.75-1.875
		c2.869,0,4.859,1.395,5.965,4.182l15.314,37.498l14.691-37.365c1.17-2.875,3.15-4.314,5.939-4.314c1.83,0,3.443,0.625,4.838,1.875
		c1.393,1.25,2.09,2.795,2.09,4.631C807.854,146.378,807.668,147.259,807.301,148.216z"/>
	<path fill="#FFA000" d="M864.42,164.97c0,7.898-2.051,14.578-6.152,20.039c-4.545,5.979-10.59,8.969-18.137,8.969
		c-3.592,0-6.707-0.441-9.342-1.324v12.682c0,2.057-0.668,3.676-2.002,4.852s-2.893,1.764-4.67,1.764
		c-1.779,0-3.338-0.588-4.67-1.764c-1.334-1.176-2.002-2.795-2.002-4.852v-60.43c0-2.057,0.662-3.674,1.986-4.852
		c1.322-1.176,2.867-1.764,4.631-1.764c2.131,0,3.822,0.736,5.072,2.205c2.719-1.469,5.918-2.205,9.594-2.205
		c7.645,0,13.895,2.621,18.746,7.859C862.105,151.169,864.42,157.442,864.42,164.97z M851.078,164.968
		c0-4.074-1.129-7.334-3.383-9.779c-2.252-2.443-5.234-3.666-8.943-3.666c-5.309,0-7.963,2.631-7.963,7.891v18.998
		c2.545,1.555,5.637,2.334,9.273,2.334c3.779,0,6.652-1.74,8.615-5.225C850.277,172.634,851.078,169.116,851.078,164.968z"/>
	<path fill="#FFA000" d="M903.5,139.171c2.043,0,3.652,0.645,4.82,1.93c1.168,1.289,1.752,2.852,1.752,4.688
		c0,1.764-0.584,3.309-1.752,4.631c-1.168,1.324-2.777,1.986-4.82,1.986h-9.418v23.816c0,2.281,0.109,3.678,0.326,4.191
		c0.434,0.736,1.561,1.104,3.373,1.104c1.305,0,2.865-0.184,4.678-0.551c1.957-0.295,3.713,0.258,5.273,1.652
		c1.559,1.396,2.34,3.053,2.34,4.963c0,4.779-4.139,7.166-12.414,7.166c-11.279,0-16.918-6.174-16.918-18.525v-23.928
		c-1.838-0.146-3.271-0.844-4.301-2.096c-1.031-1.248-1.543-2.719-1.543-4.41c0-2.057,1.945-4.262,5.844-6.617v-5.291
		c0-2.059,0.666-3.676,2-4.854c1.334-1.174,2.891-1.764,4.672-1.764c1.852,0,3.426,0.59,4.725,1.764
		c1.297,1.178,1.945,2.795,1.945,4.854v5.291H903.5z"/>
</g>
<g>
	<circle fill="#455A64" cx="164.461" cy="168.13" r="75.613"/>
	<path fill="#FFA000" d="M202.805,196.362h-0.03l8.673,13.151l-23.606-13.151h-44.516c-4.307,0-7.905-3.194-8.544-7.329
		c-0.064-0.429-0.1-0.866-0.1-1.313V146.24c0-0.448,0.035-0.886,0.1-1.314c0.639-4.134,4.237-7.329,8.544-7.329h59.479
		c4.754,0,8.643,3.889,8.643,8.644v41.479C211.447,192.469,207.559,196.362,202.805,196.362z"/>
	<g>
		<path fill="#FFFFFF" d="M110.562,166.982c0,11.549,8.884,21.059,20.178,22.06v-9.164c-4.728-0.719-8.625-3.985-10.256-8.348
			h10.256v-9.103h-10.256c1.631-4.361,5.528-7.625,10.256-8.346v-9.165C119.445,145.918,110.562,155.43,110.562,166.982z"/>
		<path fill="#FFFFFF" d="M196.729,162.429v16.534h-9.101v-7.433h-5.916v7.433h-9.106v-7.433h-18.216
			c-1.97,9.382-9.884,16.598-19.609,17.503c-0.064-0.429-0.1-0.866-0.1-1.313v-7.842c4.726-0.719,8.629-3.987,10.258-8.348h-10.258
			v-9.102h10.258c-1.629-4.36-5.532-7.623-10.258-8.347v-7.842c0-0.448,0.035-0.886,0.1-1.314
			c9.726,0.905,17.64,8.122,19.609,17.503H196.729z"/>
	</g>
</g>
</svg>
