<?xml version="1.0" encoding="utf-8"?>
<!-- Generator: Adobe Illustrator 15.1.0, SVG Export Plug-In . SVG Version: 6.00 Build 0)  -->
<!DOCTYPE svg PUBLIC "-//W3C//DTD SVG 1.1//EN" "http://www.w3.org/Graphics/SVG/1.1/DTD/svg11.dtd">
<svg version="1.1" id="Layer_2" xmlns="http://www.w3.org/2000/svg" xmlns:xlink="http://www.w3.org/1999/xlink" x="0px" y="0px"
	 width="1000px" height="604.098px" viewBox="0 0 1000 604.098" enable-background="new 0 0 1000 604.098" xml:space="preserve">
<rect width="1000" height="604.098"/>
<g>
	<g>
		<path fill="#FFFFFF" d="M500,118.316c19.231,0,37.879,3.763,55.427,11.185c16.956,7.17,32.188,17.442,45.27,30.524
			s23.351,28.313,30.522,45.27c7.422,17.546,11.187,36.193,11.187,55.427c0,19.229-3.765,37.877-11.187,55.427
			c-7.172,16.956-17.44,32.188-30.522,45.27s-28.313,23.351-45.27,30.521c-17.548,7.427-36.195,11.188-55.427,11.188
			c-19.229,0-37.879-3.762-55.427-11.188c-16.956-7.17-32.188-17.438-45.27-30.521s-23.353-28.313-30.524-45.27
			c-7.42-17.55-11.185-36.197-11.185-55.427c0-19.233,3.765-37.881,11.185-55.427c7.172-16.956,17.442-32.188,30.524-45.27
			s28.313-23.354,45.27-30.524C462.121,122.079,480.771,118.316,500,118.316L500,118.316z M500,104.966
			c-86.021,0-155.756,69.734-155.756,155.756S413.979,416.478,500,416.478s155.756-69.734,155.756-155.756
			S586.021,104.966,500,104.966L500,104.966z"/>
		<path fill="#FFFFFF" d="M388.971,258.354c0,23.788,18.302,43.38,41.565,45.443v-18.875c-9.734-1.48-17.767-8.205-21.125-17.195
			h21.125v-18.75h-21.125c3.358-8.985,11.391-15.71,21.125-17.195v-18.875C407.272,214.97,388.971,234.562,388.971,258.354z"/>
		<g>
			<g>
				<path fill="#FFFFFF" d="M450.316,273.069h-11.655v6.432C443.183,278.635,447.244,276.35,450.316,273.069z"/>
				<path fill="#FFFFFF" d="M438.661,237.202v6.432h11.655C447.244,240.354,443.183,238.068,438.661,237.202z"/>
				<path fill="#FFFFFF" d="M596.789,301.073V215.63c0-9.79-8.01-17.798-17.801-17.798H456.463c-6.959,0-13.018,4.047-15.941,9.905
					c10.45,1.213,20.112,5.553,28.018,12.62c7.09,6.341,12.172,14.324,14.863,23.276h88.411v44.746h-29.432v-15.311h-1.508v15.311
					h-29.43v-15.311h-28.042c-2.691,8.957-7.773,16.936-14.863,23.276c-7.905,7.067-17.567,11.411-28.018,12.62
					c2.924,5.858,8.982,9.909,15.941,9.909h91.694l48.632,27.097l-17.869-27.097h0.068
					C588.779,318.875,596.789,310.863,596.789,301.073z"/>
			</g>
			<path fill="#FFFFFF" d="M479.255,248.977c-4.065-19.386-20.474-34.288-40.594-36.07v18.875
				c9.736,1.485,17.767,8.21,21.123,17.195h-21.123v18.75h21.123c-3.356,8.99-11.387,15.715-21.123,17.195v18.875
				c20.12-1.782,36.528-16.685,40.594-36.07h37.528v15.314h18.75v-15.314h12.189v15.314h18.752v-15.314v-9.373v-9.377H479.255z"/>
		</g>
	</g>
	<g>
		<g>
			<path fill="#FFFFFF" d="M309.621,469.245h-27.829c1.7,2.924,4.704,4.387,9.011,4.387c1.647,0,2.937,0.49,3.868,1.475
				c0.93,0.984,1.395,2.139,1.395,3.467c0,1.275-0.452,2.367-1.355,3.27c-0.904,0.904-2.206,1.355-3.907,1.355
				c-6.008,0-10.845-1.846-14.513-5.541s-5.503-8.572-5.503-14.631c0-6.381,1.781-11.469,5.344-15.273
				c3.561-3.799,8.531-5.701,14.911-5.701c6.113,0,10.845,2.287,14.194,6.859c2.923,4.092,4.385,9.223,4.385,15.389V469.245z
				 M299.495,459.677c-1.064-5.371-3.882-8.055-8.453-8.055c-6.008,0-9.489,2.684-10.445,8.055H299.495z"/>
			<path fill="#FFFFFF" d="M352.92,482.642h-21.45c-4.465,0-8.027-1.236-10.686-3.707c-2.658-2.473-3.986-5.967-3.986-10.488
				c0-4.943,1.721-8.717,5.168-11.322c3.02-2.338,6.941-3.508,11.765-3.508c1.484,0,3.1,0.346,4.85,1.037
				c2.014,0.795,3.577,1.809,4.69,3.029c0-4.359-2.644-6.541-7.929-6.541c-1.797,0-3.251-0.527-4.36-1.592
				c-1.11-1.064-1.665-2.26-1.665-3.59c0-2.922,2.02-4.387,6.061-4.387c4.943,0,9.011,1.197,12.2,3.59
				c3.561,2.658,5.343,6.352,5.343,11.084V482.642z M343.271,473.071v-3.746c0-2.02-1.133-3.59-3.396-4.705
				c-1.845-0.957-3.871-1.436-6.083-1.436c-4.897,0-7.346,1.754-7.346,5.262c0,3.137,2.104,4.678,6.319,4.625H343.271z"/>
			<path fill="#FFFFFF" d="M395.74,469.403c0,4.893-1.992,8.508-5.979,10.846c-3.19,1.859-7.39,2.791-12.6,2.791
				c-3.083,0-6.778-0.797-11.084-2.393c-2.126-0.742-3.189-2.18-3.189-4.305c0-1.277,0.44-2.432,1.318-3.469
				c0.88-1.037,1.988-1.557,3.322-1.557c0.586,0,1.173,0.135,1.761,0.4c3.307,1.168,5.947,1.754,7.922,1.754
				c1.974,0,3.761-0.238,5.36-0.719c2.348-0.689,3.521-1.754,3.521-3.189c0-1.01-2.134-1.887-6.4-2.631
				c-5.653-0.957-9.415-1.861-11.28-2.711c-4.214-1.914-6.32-4.945-6.32-9.092c0-4.465,1.993-7.92,5.98-10.365
				c3.349-2.072,7.388-3.109,12.12-3.109c3.986,0,7.521,0.689,10.605,2.072c1.914,0.852,2.87,2.26,2.87,4.227
				c0,1.273-0.452,2.432-1.355,3.469c-0.904,1.035-1.993,1.555-3.269,1.555c-0.746,0-1.463-0.16-2.153-0.479
				c-1.862-0.85-4.095-1.275-6.698-1.275c-2.5,0-4.121,0.053-4.864,0.16c-2.286,0.426-3.429,1.434-3.429,3.029
				c0,0.902,2.259,1.834,6.777,2.791c5.901,1.223,9.596,2.152,11.085,2.789C393.748,461.696,395.74,464.833,395.74,469.403z"/>
			<path fill="#FFFFFF" d="M442.946,449.55l-17.463,44.414c-0.798,2.02-2.232,3.031-4.306,3.031c-1.329,0-2.5-0.439-3.508-1.316
				c-1.012-0.877-1.516-1.955-1.516-3.23c0-0.637,0.159-1.303,0.479-1.992l1.754-3.828c0.053-0.053-4.918-12.412-14.912-37.078
				c-0.266-0.639-0.397-1.277-0.397-1.916c0-1.326,0.506-2.443,1.518-3.348s2.157-1.355,3.435-1.355
				c2.075,0,3.514,1.008,4.313,3.023l11.075,27.115l10.624-27.02c0.846-2.08,2.278-3.119,4.293-3.119
				c1.325,0,2.491,0.451,3.498,1.355c1.008,0.904,1.513,2.021,1.513,3.348C443.346,448.22,443.212,448.858,442.946,449.55z"/>
		</g>
	</g>
	<g>
		<path fill="#FFFFFF" d="M489.754,469.245h-27.829c1.7,2.924,4.705,4.387,9.011,4.387c1.646,0,2.937,0.49,3.867,1.475
			c0.929,0.984,1.396,2.139,1.396,3.467c0,1.275-0.452,2.367-1.355,3.27c-0.904,0.904-2.206,1.355-3.907,1.355
			c-6.008,0-10.846-1.846-14.513-5.541c-3.669-3.695-5.504-8.572-5.504-14.631c0-6.381,1.781-11.469,5.344-15.273
			c3.561-3.799,8.532-5.701,14.912-5.701c6.112,0,10.844,2.287,14.193,6.859c2.923,4.092,4.386,9.223,4.386,15.389V469.245z
			 M479.626,459.677c-1.063-5.371-3.88-8.055-8.451-8.055c-6.009,0-9.489,2.684-10.446,8.055H479.626z"/>
		<path fill="#FFFFFF" d="M534.887,477.837c0,1.549-0.484,2.736-1.449,3.563c-0.963,0.828-2.089,1.242-3.375,1.242
			c-1.34,0-2.48-0.414-3.418-1.238c-0.938-0.826-1.405-2.012-1.405-3.559v-20.467c0-2.293-1.107-3.891-3.319-4.795
			c-1.633-0.643-4.004-0.908-7.111-0.801c-7.559,0.078-9.824,0.133-6.794,0.158v25.879c0,1.553-0.471,2.746-1.408,3.576
			c-0.939,0.83-2.077,1.246-3.416,1.246c-1.287,0-2.415-0.414-3.378-1.242c-0.965-0.826-1.447-2.014-1.447-3.563v-35.385
			l21.531-0.08c4.358,0,7.946,1.375,10.763,4.121c2.818,2.75,4.228,6.367,4.228,10.85V477.837z"/>
		<path fill="#FFFFFF" d="M574.279,479.771c-3.299,2.287-7.23,3.428-11.803,3.428c-6.061,0-10.911-1.859-14.553-5.58
			c-3.644-3.723-5.463-8.664-5.463-14.834c0-5.74,1.886-10.578,5.662-14.512c3.774-3.934,8.559-5.9,14.354-5.9
			c3.774,0,7.229,0.932,10.367,2.791c1.646,0.904,2.472,2.207,2.472,3.906c0,1.33-0.464,2.5-1.391,3.51
			c-0.928,1.01-2.054,1.514-3.378,1.514c-0.847,0-1.667-0.238-2.464-0.717c-1.642-0.957-3.496-1.436-5.563-1.436
			c-3.071,0-5.577,1.012-7.51,3.029c-1.933,2.021-2.901,4.625-2.901,7.814c0,7.232,3.471,10.848,10.412,10.848
			c2.544,0,4.664-0.586,6.358-1.756c0.9-0.584,1.828-0.877,2.783-0.877c1.323,0,2.45,0.506,3.377,1.514
			c0.926,1.012,1.391,2.154,1.391,3.43C576.431,477.538,575.714,478.812,574.279,479.771z"/>
		<path fill="#FFFFFF" d="M605.536,442.372c2.658,0.691,3.986,2.365,3.986,5.023c0,1.275-0.371,2.352-1.111,3.229
			s-1.772,1.316-3.095,1.316c-0.265,0-0.637-0.053-1.113-0.158c-0.473-0.107-0.846-0.16-1.107-0.16
			c-2.223,0-4.579,1.002-7.066,3.006c-2.485,2.004-3.73,4.049-3.73,6.131v17.072c0,1.551-0.482,2.74-1.448,3.566
			c-0.964,0.83-2.09,1.244-3.375,1.244c-1.288,0-2.415-0.414-3.378-1.238c-0.965-0.826-1.447-2.012-1.447-3.557v-30.043
			c0-1.492,0.479-2.664,1.436-3.516c0.956-0.852,2.074-1.279,3.349-1.279c2.658,0,4.226,1.277,4.705,3.828
			c1.01-1.381,2.485-2.523,4.426-3.43c1.939-0.902,3.947-1.355,6.021-1.355C603.596,442.052,604.579,442.161,605.536,442.372z"/>
		<path fill="#FFFFFF" d="M654.895,449.55l-17.463,44.414c-0.798,2.02-2.233,3.031-4.307,3.031c-1.328,0-2.499-0.439-3.508-1.316
			c-1.012-0.877-1.516-1.955-1.516-3.23c0-0.637,0.159-1.303,0.479-1.992l1.754-3.828c0.054-0.053-4.918-12.412-14.91-37.078
			c-0.267-0.639-0.398-1.277-0.398-1.916c0-1.326,0.505-2.443,1.518-3.348c1.011-0.904,2.156-1.355,3.435-1.355
			c2.075,0,3.514,1.008,4.313,3.023l11.074,27.115l10.624-27.02c0.846-2.08,2.277-3.119,4.295-3.119c1.324,0,2.49,0.451,3.499,1.355
			c1.006,0.904,1.51,2.021,1.51,3.348C655.293,448.22,655.16,448.858,654.895,449.55z"/>
		<path fill="#FFFFFF" d="M696.2,461.665c0,5.711-1.483,10.541-4.45,14.49c-3.287,4.324-7.658,6.486-13.115,6.486
			c-2.598,0-4.85-0.318-6.756-0.959v9.172c0,1.488-0.482,2.658-1.447,3.508c-0.965,0.852-2.092,1.277-3.377,1.277
			c-1.286,0-2.413-0.426-3.378-1.277c-0.963-0.85-1.446-2.02-1.446-3.508v-43.699c0-1.488,0.479-2.656,1.437-3.51
			c0.956-0.85,2.072-1.273,3.349-1.273c1.541,0,2.765,0.531,3.667,1.594c1.966-1.063,4.28-1.594,6.938-1.594
			c5.527,0,10.047,1.895,13.557,5.684C694.525,451.687,696.2,456.222,696.2,461.665z M686.552,461.663
			c0-2.945-0.816-5.303-2.446-7.072c-1.629-1.766-3.785-2.65-6.468-2.65c-3.839,0-5.759,1.904-5.759,5.707v13.738
			c1.841,1.123,4.077,1.686,6.707,1.686c2.733,0,4.811-1.256,6.229-3.777C685.973,467.208,686.552,464.663,686.552,461.663z"/>
		<path fill="#FFFFFF" d="M724.46,443.009c1.478,0,2.641,0.467,3.484,1.396c0.846,0.93,1.269,2.061,1.269,3.389
			c0,1.275-0.423,2.393-1.269,3.348c-0.844,0.957-2.007,1.438-3.484,1.438h-6.811v17.223c0,1.65,0.079,2.658,0.235,3.031
			c0.313,0.531,1.129,0.799,2.439,0.799c0.943,0,2.072-0.135,3.383-0.398c1.415-0.213,2.686,0.186,3.813,1.193
			c1.128,1.01,1.693,2.207,1.693,3.59c0,3.455-2.993,5.182-8.978,5.182c-8.157,0-12.233-4.465-12.233-13.396v-17.303
			c-1.33-0.105-2.366-0.611-3.11-1.516c-0.746-0.902-1.116-1.967-1.116-3.189c0-1.486,1.406-3.082,4.227-4.785v-3.826
			c0-1.488,0.48-2.658,1.446-3.51c0.964-0.85,2.089-1.275,3.378-1.275c1.339,0,2.477,0.426,3.416,1.275
			c0.938,0.852,1.407,2.021,1.407,3.51v3.826H724.46z"/>
	</g>
</g>
</svg>
